<svg id="svg" version="1.1" xmlns="http://www.w3.org/2000/svg" xmlns:xlink="http://www.w3.org/1999/xlink" width="400" height="720.3501094091903" viewBox="0, 0, 400,720.3501094091903">
    <style>
        path {
            fill: #000;
        }
        @media (prefers-color-scheme: dark) {
            path {
                fill: #fff;
            }
        }
    </style>
    <g id="svgg"><path id="path0" d="M161.050 79.305 C 157.921 80.512,153.488 81.904,151.198 82.399 C 148.663 82.947,145.585 84.510,143.327 86.396 C 141.288 88.100,136.859 91.257,133.486 93.412 C 128.051 96.884,117.287 107.045,117.287 108.702 C 117.287 109.045,115.564 111.806,113.459 114.838 C 101.060 132.692,95.773 146.690,99.630 151.453 L 101.230 153.429 103.131 150.759 C 104.177 149.290,105.033 147.420,105.033 146.602 C 105.033 145.104,110.256 134.021,114.208 127.133 C 115.382 125.088,116.062 123.401,115.720 123.386 C 115.378 123.370,115.758 122.856,116.564 122.243 C 117.370 121.631,119.065 119.181,120.331 116.801 C 123.122 111.549,125.728 108.717,132.604 103.462 C 135.492 101.255,138.837 98.497,140.037 97.334 C 142.522 94.926,149.817 91.028,151.840 91.028 C 152.584 91.028,154.862 90.291,156.902 89.389 C 174.103 81.788,190.873 85.187,203.128 98.759 C 212.169 108.772,212.383 109.161,214.025 118.575 C 214.753 122.754,215.980 127.620,216.752 129.388 C 218.046 132.356,218.684 150.391,217.559 152.212 C 217.360 152.533,216.349 159.084,215.311 166.770 C 214.273 174.455,213.288 181.532,213.121 182.495 C 212.399 186.673,210.940 193.407,209.632 198.596 C 208.643 202.519,208.497 204.471,209.143 205.117 C 210.450 206.424,210.286 207.440,208.769 207.440 C 208.056 207.440,207.284 208.326,207.053 209.409 C 202.311 231.649,194.483 260.742,191.216 268.271 C 190.589 269.716,188.441 275.798,186.443 281.787 C 184.445 287.776,180.624 298.214,177.951 304.982 C 172.645 318.420,166.953 334.046,164.860 340.919 C 163.470 345.484,157.489 361.442,155.183 366.740 C 149.418 379.981,144.092 399.135,140.867 418.221 C 135.886 447.704,134.174 471.021,136.446 478.425 C 136.875 479.821,137.707 484.311,138.296 488.403 C 139.950 499.885,145.091 517.028,148.565 522.640 C 149.414 524.013,152.561 529.228,155.557 534.230 C 165.138 550.225,171.343 556.147,182.470 559.913 C 195.672 564.382,207.648 562.888,215.098 555.842 C 218.472 552.652,216.725 549.774,212.683 551.865 C 197.081 559.932,174.863 552.299,166.749 536.084 C 165.791 534.170,164.347 531.816,163.539 530.853 C 161.226 528.096,152.199 512.090,151.255 509.072 C 146.102 492.600,142.479 470.672,143.068 459.519 C 143.958 442.666,149.467 406.087,152.822 394.748 C 154.721 388.329,157.217 380.732,158.298 378.082 C 158.780 376.898,160.226 372.976,161.511 369.365 C 162.796 365.755,164.533 361.225,165.370 359.300 C 166.208 357.374,169.167 349.300,171.947 341.357 C 174.726 333.414,177.941 324.699,179.091 321.991 C 180.241 319.283,181.182 316.310,181.182 315.383 C 181.182 314.456,181.564 313.315,182.032 312.848 C 182.499 312.380,183.011 311.218,183.169 310.266 C 183.326 309.313,183.883 307.746,184.405 306.783 C 186.035 303.779,189.634 294.212,194.777 279.212 C 202.996 255.243,205.689 246.623,205.689 244.293 C 205.689 243.401,206.308 240.947,207.065 238.841 C 208.454 234.976,216.923 198.584,219.261 186.433 C 219.956 182.823,220.426 178.203,220.304 176.168 C 220.179 174.066,220.503 172.305,221.055 172.094 C 221.590 171.889,222.114 169.292,222.221 166.315 C 222.329 163.342,222.812 159.868,223.296 158.596 C 223.780 157.323,224.075 154.882,223.951 153.171 C 223.827 151.461,224.072 149.501,224.495 148.817 C 225.775 146.746,225.251 133.821,223.661 128.228 C 221.412 120.319,220.736 117.238,220.302 112.910 C 219.688 106.790,217.834 103.435,210.626 95.405 C 206.953 91.313,203.946 87.698,203.943 87.372 C 203.930 85.636,193.336 80.543,187.947 79.682 C 184.732 79.168,181.081 78.360,179.834 77.886 C 175.695 76.312,167.129 76.959,161.050 79.305 M268.287 227.521 C 266.606 232.817,278.591 245.113,290.591 250.404 C 294.092 251.947,308.021 251.421,311.321 249.621 C 312.373 249.047,314.033 248.578,315.010 248.578 C 315.988 248.578,317.212 247.784,317.731 246.814 C 318.250 245.845,320.233 244.067,322.138 242.865 C 325.198 240.933,325.602 240.284,325.602 237.295 C 325.602 230.654,319.698 230.606,315.527 237.214 C 313.752 240.025,312.725 240.644,307.764 241.890 C 294.004 245.346,286.947 242.368,275.121 228.114 C 272.821 225.343,269.082 225.018,268.287 227.521 M76.324 229.497 C 74.341 231.479,76.152 238.223,79.502 241.334 C 94.656 255.404,123.870 252.137,131.003 235.574 C 133.757 229.178,127.819 227.230,123.282 233.042 C 119.533 237.842,118.523 238.679,113.838 240.866 C 105.073 244.957,84.265 239.603,83.310 233.012 C 82.822 229.641,78.403 227.417,76.324 229.497 M219.524 631.993 C 209.933 643.749,183.022 644.873,177.274 633.759 C 173.686 626.820,168.754 630.989,171.878 638.321 C 175.845 647.629,195.436 652.387,208.024 647.099 C 210.832 645.920,214.775 644.364,216.786 643.642 C 224.135 641.004,230.765 631.499,226.753 629.352 C 223.885 627.817,222.527 628.313,219.524 631.993 " stroke="none" fill-rule="evenodd"></path></g></svg>